<svg xmlns="http://www.w3.org/2000/svg" viewBox="0 0 1024 1024" role="img" aria-labelledby="title desc">
  <title id="title">homebridge-sabnzbd logo</title>
  <desc id="desc">A minimal yellow, black and white download bridge mark for the homebridge-sabnzbd plugin.</desc>
  <defs>
    <linearGradient id="bg" x1="140" x2="884" y1="88" y2="936" gradientUnits="userSpaceOnUse">
      <stop offset="0" stop-color="#FFE08A"/>
      <stop offset="0.42" stop-color="#FFC21A"/>
      <stop offset="1" stop-color="#F28C00"/>
    </linearGradient>
    <linearGradient id="arrow" x1="338" x2="686" y1="158" y2="716" gradientUnits="userSpaceOnUse">
      <stop offset="0" stop-color="#FFF5C2"/>
      <stop offset="0.55" stop-color="#FFD23A"/>
      <stop offset="1" stop-color="#F59E0B"/>
    </linearGradient>
    <filter id="shadow" x="-20%" y="-20%" width="140%" height="140%">
      <feDropShadow dx="0" dy="24" stdDeviation="22" flood-color="#1F1300" flood-opacity="0.32"/>
    </filter>
  </defs>
  <rect width="1024" height="1024" rx="214" fill="url(#bg)"/>
  <path d="M118 202h788v620c0 47-38 85-85 85H203c-47 0-85-38-85-85V202z" fill="#111111" opacity=".12"/>
  <g filter="url(#shadow)">
    <path d="M364 126h296v292h158L512 812 206 418h158V126z" fill="#111111"/>
    <path d="M418 180h188v292h102L512 724 316 472h102V180z" fill="url(#arrow)"/>
    <path d="M250 686c20-120 130-214 262-214s242 94 262 214h-94c-23-68-88-116-168-116s-145 48-168 116h-94z" fill="#111111"/>
    <path d="M312 686c32-61 107-100 200-100s168 39 200 100h-76c-28-27-72-43-124-43s-96 16-124 43h-76z" fill="#FFFFFF"/>
    <path d="M232 736h560c24 0 44 20 44 44v52H188v-52c0-24 20-44 44-44z" fill="#111111"/>
    <path d="M270 776h484v56H270z" fill="#FFFFFF"/>
    <path d="M366 776h58v56h-58zm120 0h58v56h-58zm120 0h58v56h-58z" fill="#111111" opacity=".22"/>
  </g>
</svg>
