<svg xmlns="http://www.w3.org/2000/svg" viewBox="0 0 1024 1024" role="img" aria-labelledby="title desc">
  <title id="title">homebridge-sabnzbd logo</title>
  <desc id="desc">A minimal bridge and download queue mark for the homebridge-sabnzbd plugin.</desc>
  <defs>
    <linearGradient id="bg" x1="120" x2="904" y1="120" y2="904" gradientUnits="userSpaceOnUse">
      <stop offset="0" stop-color="#164E63"/>
      <stop offset="0.54" stop-color="#2563EB"/>
      <stop offset="1" stop-color="#16A34A"/>
    </linearGradient>
    <linearGradient id="rail" x1="250" x2="774" y1="312" y2="760" gradientUnits="userSpaceOnUse">
      <stop offset="0" stop-color="#F8FAFC"/>
      <stop offset="1" stop-color="#D9F99D"/>
    </linearGradient>
    <filter id="shadow" x="-20%" y="-20%" width="140%" height="140%">
      <feDropShadow dx="0" dy="24" stdDeviation="24" flood-color="#0F172A" flood-opacity="0.22"/>
    </filter>
  </defs>
  <rect width="1024" height="1024" rx="224" fill="url(#bg)"/>
  <g filter="url(#shadow)">
    <path d="M248 654c20-146 130-260 264-260s244 114 264 260h-92c-18-96-88-168-172-168s-154 72-172 168h-92z" fill="url(#rail)"/>
    <path d="M236 692h552v86H236z" fill="#F8FAFC"/>
    <path d="M326 692h72v86h-72zm150 0h72v86h-72zm150 0h72v86h-72z" fill="#0F766E" opacity=".36"/>
    <path d="M512 232c24 0 44 20 44 44v212l62-62a44 44 0 0 1 62 62L543 625a44 44 0 0 1-62 0L344 488a44 44 0 0 1 62-62l62 62V276c0-24 20-44 44-44z" fill="#F8FAFC"/>
    <circle cx="760" cy="284" r="76" fill="#BEF264"/>
    <path d="M728 284h64m-32-32v64" stroke="#166534" stroke-width="34" stroke-linecap="round"/>
  </g>
</svg>
